<svg width="110" height="247" viewBox="0 0 110 247" fill="none" xmlns="http://www.w3.org/2000/svg">
<path d="M0 47.1633L24.3786 36.8935V164.211C24.3786 174.889 15.7222 183.545 5.04386 183.545V183.545C2.25821 183.545 0 181.287 0 178.501V47.1633Z" fill="white"/>
<path d="M110 38.0742L85.6214 27.6701V164.21C85.6214 174.889 94.2778 183.545 104.956 183.545V183.545C107.742 183.545 110 181.287 110 178.501V38.0742Z" fill="white"/>
<path d="M41.4078 14.7048L54.5 0L68.4951 14.7048V153.688C68.4951 161.008 62.5604 166.943 55.2396 166.943V166.943C47.6005 166.943 41.4078 160.75 41.4078 153.111V14.7048Z" fill="white"/>
<path d="M77.8586 221.063L54.9515 242L30.8858 220.2L32.9246 218.79C39.2477 214.417 46.9454 212.067 54.9515 212.067V212.067V212.067C62.8827 212.36 70.5844 215.224 76.7529 220.175L77.8586 221.063Z" fill="white"/>
</svg>
