<?xml version="1.0" encoding="UTF-8"?>
<svg xmlns="http://www.w3.org/2000/svg" xmlns:xlink="http://www.w3.org/1999/xlink" viewBox="0 0 96 96" width="96px" height="96px">
<g id="surface65768618">
<path style=" stroke:none;fill-rule:nonzero;fill:rgb(100%,19.215687%,22.745098%);fill-opacity:1;" d="M 42 10.5 C 37.863281 10.5 34.5 13.863281 34.5 18 L 34.5 22.5 L 19.5 22.5 C 17.84375 22.5 16.5 23.84375 16.5 25.5 C 16.5 27.15625 17.84375 28.5 19.5 28.5 L 22.664062 28.5 L 25.191406 73.996094 C 25.457031 78.765625 29.398438 82.5 34.175781 82.5 L 61.824219 82.5 C 66.597656 82.5 70.542969 78.765625 70.808594 73.996094 L 73.335938 28.5 L 76.5 28.5 C 78.15625 28.5 79.5 27.15625 79.5 25.5 C 79.5 23.84375 78.15625 22.5 76.5 22.5 L 61.5 22.5 L 61.5 18 C 61.5 13.863281 58.136719 10.5 54 10.5 Z M 42 16.5 L 54 16.5 C 54.828125 16.5 55.5 17.171875 55.5 18 L 55.5 22.5 L 40.5 22.5 L 40.5 18 C 40.5 17.171875 41.171875 16.5 42 16.5 Z M 48 34.875 C 49.449219 34.875 50.625 36.050781 50.625 37.5 L 50.625 67.5 C 50.625 68.949219 49.449219 70.125 48 70.125 C 46.550781 70.125 45.375 68.949219 45.375 67.5 L 45.375 37.5 C 45.375 36.050781 46.550781 34.875 48 34.875 Z M 60.011719 34.875 C 61.460938 34.925781 62.59375 36.140625 62.542969 37.589844 L 61.496094 67.71875 C 61.449219 69.140625 60.285156 70.253906 58.878906 70.253906 C 58.847656 70.253906 58.816406 70.25 58.785156 70.25 C 57.335938 70.199219 56.203125 68.984375 56.253906 67.535156 L 57.296875 37.40625 C 57.347656 35.957031 58.558594 34.835938 60.011719 34.875 Z M 35.984375 34.878906 C 37.429688 34.84375 38.648438 35.960938 38.703125 37.410156 L 39.746094 67.539062 C 39.796875 68.988281 38.664062 70.203125 37.214844 70.253906 C 37.1875 70.253906 37.152344 70.253906 37.121094 70.253906 C 35.714844 70.253906 34.550781 69.136719 34.5 67.71875 L 33.453125 37.589844 C 33.402344 36.140625 34.535156 34.929688 35.984375 34.878906 Z M 35.984375 34.878906 "/>
</g>
</svg>
